<svg xmlns="http://www.w3.org/2000/svg" width="42.606" height="34.086" viewBox="0 0 42.606 34.086">
  <path id="github-alt" d="M16.519,87.5c0,1.855-.968,4.891-3.258,4.891S10,89.35,10,87.5s.968-4.891,3.258-4.891S16.519,85.64,16.519,87.5Zm26.087-4.482a19.237,19.237,0,0,1-1.553,8.432c-3.364,6.8-12.613,6.639-19.235,6.639-6.728,0-16.527.24-20.025-6.639A19,19,0,0,1,0,83.013,15.265,15.265,0,0,1,3.684,72.929,13.9,13.9,0,0,1,3,68.6,8.839,8.839,0,0,1,4.3,64a13.869,13.869,0,0,1,9.657,3.2,34,34,0,0,1,7.873-.888,30.618,30.618,0,0,1,7.136.817A13.718,13.718,0,0,1,38.532,64a8.756,8.756,0,0,1,1.3,4.6,13.7,13.7,0,0,1-.683,4.278,15.293,15.293,0,0,1,3.462,10.137ZM36.9,87.5c0-3.9-2.37-7.332-6.524-7.332A36.494,36.494,0,0,0,25.4,80.7a26.083,26.083,0,0,1-4,.284,26.243,26.243,0,0,1-4-.284,35.9,35.9,0,0,0-4.971-.533C8.273,80.164,5.9,83.6,5.9,87.5c0,7.793,7.136,8.992,13.35,8.992h4.278C29.771,96.487,36.9,95.3,36.9,87.5ZM29.567,82.6c-2.29,0-3.258,3.036-3.258,4.891s.968,4.891,3.258,4.891,3.258-3.036,3.258-4.891S31.857,82.6,29.567,82.6Z" transform="translate(0 -64)" fill="#fff"/>
</svg>
