<svg xmlns="http://www.w3.org/2000/svg" width="42.606" height="34.604" viewBox="0 0 42.606 34.604">
  <path id="twitter" d="M38.226,56.706c.027.378.027.757.027,1.135,0,11.544-8.786,24.844-24.844,24.844A24.676,24.676,0,0,1,0,78.766a18.063,18.063,0,0,0,2.109.108,17.488,17.488,0,0,0,10.841-3.731,8.747,8.747,0,0,1-8.164-6.056,11.013,11.013,0,0,0,1.649.135,9.236,9.236,0,0,0,2.3-.3,8.733,8.733,0,0,1-7-8.57v-.108a8.794,8.794,0,0,0,3.947,1.108,8.745,8.745,0,0,1-2.7-11.679,24.82,24.82,0,0,0,18,9.138,9.857,9.857,0,0,1-.216-2A8.74,8.74,0,0,1,35.874,50.84a17.192,17.192,0,0,0,5.542-2.109,8.708,8.708,0,0,1-3.839,4.812,17.505,17.505,0,0,0,5.028-1.352A18.77,18.77,0,0,1,38.226,56.706Z" transform="translate(0 -48.082)" fill="#fff"/>
</svg>
