<svg xmlns="http://www.w3.org/2000/svg" width="42.606" height="29.957" viewBox="0 0 42.606 29.957">
  <path id="youtube" d="M56.648,68.687A5.353,5.353,0,0,0,52.882,64.9C49.559,64,36.236,64,36.236,64s-13.323,0-16.646.9a5.353,5.353,0,0,0-3.767,3.791c-.89,3.344-.89,10.322-.89,10.322s0,6.977.89,10.322a5.274,5.274,0,0,0,3.767,3.731c3.323.9,16.646.9,16.646.9s13.323,0,16.646-.9a5.274,5.274,0,0,0,3.767-3.731c.89-3.344.89-10.322.89-10.322S57.539,72.031,56.648,68.687ZM31.878,85.344V72.674l11.136,6.335Z" transform="translate(-14.933 -64)" fill="#fff"/>
</svg>
